<svg width="28" height="50" viewBox="0 0 28 50" fill="none" xmlns="http://www.w3.org/2000/svg">
<path d="M26.6881 25.4836L26.0933 29.4609L24.1465 32.7365L18.951 33.5896L18.2737 35.7194L15.0817 34.2419L13.4323 34.609L12.3813 36.608L10.1706 36.4071L11.0627 37.9961L9.58981 39.3436L7.25269 37.7313L6.30942 39.4273L4.91192 39.1363L3.37288 39.4086L1.55173 37.3178L2.66692 35.4594L2.365 31.5657L3.63808 28.6386L6.02154 24.2944L5.10154 24.7173L3.95846 22.6357L4.25577 21.8365L3.46596 19.1044L1.76538 18.2261L2.86192 15.2944L5.48711 15.4384L7.32231 16.3027L7.48846 15.9913L5.18038 13.854L5.61712 11.8515L4.79 10.2207L4.2975 8.28784L5.45904 8.13919L6.06308 6.23419L7.61962 4.07823L9.05058 3.22803L13.446 3.13515L15.5508 3.35361L17.2419 1.97361L17.5313 0.506881L17.9621 0.384766L19.8996 4.87765L23.0963 9.23592L25.0942 12.939L26.1629 17.7015L25.8052 19.1557L25.9492 21.1073L25.9075 24.9544L26.6881 25.4836ZM1.56558 47.1526L0.427307 48.9461L1.31019 49.6151L5.68692 48.6905L5.95635 48.1098L5.35692 46.3163L1.56558 47.1526Z" fill="#5E5CBD"/>
</svg>
