<svg width="53" height="50" viewBox="0 0 53 50" fill="none" xmlns="http://www.w3.org/2000/svg">
<g clip-path="url(#clip0_43_52)">
<path d="M47.855 0H4.89791C3.86892 0 3.09693 0.825262 3.18771 1.80041L7.11133 43.473C7.20222 44.4474 8.09145 45.4673 9.08882 45.7306L24.5562 49.8027C25.5522 50.0644 27.1803 50.0661 28.1778 49.8061L43.6643 45.7397C44.6619 45.4771 45.5511 44.4665 45.6419 43.4904L49.5672 1.80041C49.658 0.825262 48.8893 0 47.855 0ZM40.4051 15.0426C40.4044 15.049 40.3992 15.054 40.3926 15.0551C40.3858 15.0561 40.3793 15.0528 40.3764 15.0469L28.2581 19.7536C28.0855 19.8206 27.9871 19.9941 28.023 20.1676C28.0591 20.341 28.2196 20.4662 28.4062 20.4662H37.8323C38.3337 20.4662 38.8114 20.668 39.1467 21.0214C39.4819 21.3748 39.6431 21.8465 39.5899 22.319L38.117 35.4137C38.0448 36.0562 37.5893 36.6019 36.9462 36.8164L26.9411 40.1529C26.5643 40.2787 26.1535 40.2797 25.7758 40.1556L15.8175 36.8862C15.1705 36.6738 14.7112 36.1264 14.6385 35.4811L13.9708 29.5507C13.9357 29.2394 14.0419 28.9286 14.2627 28.6958C14.4836 28.463 14.7983 28.33 15.1287 28.33H17.8998C18.4953 28.33 18.9947 28.7556 19.0577 29.3167L19.4673 32.9619L26.3625 35.2336L33.2892 32.9412L34.1364 25.3812H14.5516C13.9579 25.3812 13.4593 24.9579 13.3942 24.3986L13.0213 21.1944C12.9644 20.7057 13.2553 20.2403 13.7348 20.053L26.2692 15.1551C26.4114 15.0996 26.4922 14.9567 26.4624 14.8137C26.4325 14.6708 26.3004 14.5679 26.1467 14.5679H12.9497C12.5524 14.5679 12.2192 14.2835 12.1777 13.9092L11.7959 10.4653C11.773 10.258 11.8439 10.0512 11.9911 9.89624C12.1382 9.74136 12.3479 9.65288 12.5678 9.65288H40.1814C40.4025 9.65288 40.6131 9.74232 40.7604 9.89858C40.9077 10.0549 40.9776 10.2634 40.9526 10.4716L40.4051 15.0426Z" fill="#5E5CBD"/>
</g>
<defs>
<clipPath id="clip0_43_52">
<rect width="52.7548" height="50" fill="white"/>
</clipPath>
</defs>
</svg>
