<svg width="49" height="50" viewBox="0 0 49 50" fill="none" xmlns="http://www.w3.org/2000/svg">
<path d="M20.9248 2.84533C22.8283 0.892707 25.9145 0.892701 27.818 2.84532L45.9687 21.4646C47.8723 23.4172 47.8723 26.583 45.9687 28.5357L27.818 47.1549C25.9145 49.1076 22.8283 49.1076 20.9248 47.1549L2.77391 28.5357C0.870411 26.5831 0.870405 23.4172 2.77391 21.4646L15.5745 8.33368L19.9719 12.8445C19.6674 13.4973 19.4969 14.2283 19.4969 15.0002C19.4969 17.1773 20.8532 19.0293 22.7463 19.7157V30.2847C20.8532 30.9711 19.4969 32.8232 19.4969 35.0002C19.4969 37.7616 21.6791 40.0002 24.3711 40.0002C27.063 40.0002 29.2453 37.7616 29.2453 35.0002C29.2453 32.8232 27.889 30.9711 25.9958 30.2847V19.7157C26.1589 19.6566 26.318 19.5888 26.4725 19.5129L29.7203 22.8445C29.4158 23.4973 29.2453 24.2283 29.2453 25.0002C29.2453 27.7617 31.4275 30.0002 34.1195 30.0002C36.8114 30.0002 38.9937 27.7617 38.9937 25.0002C38.9937 22.2388 36.8114 20.0002 34.1195 20.0002C33.3669 20.0002 32.6543 20.1752 32.018 20.4875L28.7703 17.1559C29.0748 16.5032 29.2453 15.7721 29.2453 15.0002C29.2453 12.2388 27.063 10.0002 24.3711 10.0002C23.6186 10.0002 22.9059 10.1752 22.2696 10.4875L17.8722 5.97668L20.9248 2.84533Z" fill="#5E5CBD"/>
</svg>
