<svg width="100" height="100" viewBox="0 0 100 100" fill="none" xmlns="http://www.w3.org/2000/svg">
<path fill-rule="evenodd" clip-rule="evenodd" d="M50 0C22.3875 0 0 22.3875 0 50C0 77.6125 22.3875 100 50 100C77.6125 100 100 77.6125 100 50C100 22.3875 77.6125 0 50 0ZM50 8.33333C72.975 8.33333 91.6667 27.025 91.6667 50C91.6667 72.975 72.975 91.6667 50 91.6667C27.025 91.6667 8.33333 72.975 8.33333 50C8.33333 27.025 27.025 8.33333 50 8.33333ZM61.2167 70.3708C61.8875 70.85 62.75 70.9667 63.5208 70.675C64.2917 70.3833 64.8625 69.725 65.0292 68.925C66.8417 60.4167 71.2333 38.8792 72.8792 31.1417C73.0042 30.5583 72.8 29.9542 72.3417 29.5625C71.8833 29.175 71.2458 29.0625 70.6792 29.2708C61.9458 32.5042 35.0417 42.5958 24.0458 46.6667C23.3458 46.925 22.8917 47.5958 22.9167 48.3333C22.9417 49.0708 23.4375 49.7083 24.15 49.9208C29.0833 51.3958 35.5583 53.45 35.5583 53.45C35.5583 53.45 38.5792 62.5875 40.1583 67.2333C40.3542 67.8125 40.8125 68.275 41.4125 68.4292C42.0167 68.5875 42.6542 68.425 43.1042 68C45.6375 65.6083 49.5542 61.9125 49.5542 61.9125C49.5542 61.9125 56.9958 67.3667 61.2167 70.3708ZM38.2792 52.2958L41.7792 63.8333L42.5542 56.525C42.5542 56.525 56.0667 44.3375 63.7708 37.3875C64 37.1875 64.0292 36.8458 63.8417 36.6042C63.6542 36.3667 63.3167 36.3083 63.0583 36.4708C54.1292 42.1708 38.2792 52.2958 38.2792 52.2958Z" fill="#E5E5E5"/>
</svg>
