<svg width="50" height="50" viewBox="0 0 50 50" fill="none" xmlns="http://www.w3.org/2000/svg">
<path d="M43.0237 27.8349C41.2841 27.844 39.7723 28.2629 38.5064 28.8823C38.0419 27.9624 37.5774 27.1427 37.4954 26.5416C37.4044 25.8404 37.2951 25.4123 37.4044 24.5744C37.5137 23.7365 38.0055 22.5435 37.9964 22.4524C37.9872 22.3613 37.8871 21.9333 36.8852 21.9241C35.8834 21.915 35.0182 22.1154 34.918 22.3795C34.8179 22.6436 34.6266 23.2447 34.4991 23.864C34.326 24.7748 32.4954 28.0262 31.4481 29.7292C31.1111 29.0644 30.8197 28.4815 30.7559 28.017C30.6648 27.3158 30.5556 26.8877 30.6648 26.0498C30.7741 25.2119 31.2659 24.0189 31.2568 23.9278C31.2477 23.8367 31.1475 23.4087 30.1457 23.3996C29.1439 23.3905 28.2787 23.5908 28.1785 23.8549C28.0783 24.119 27.969 24.7384 27.7596 25.3394C27.5501 25.9405 25.1184 31.3686 24.4809 32.7711C24.153 33.4906 23.8707 34.0644 23.6703 34.456C23.6703 34.456 23.6612 34.4833 23.6339 34.5289C23.4608 34.8659 23.3607 35.048 23.3607 35.048C23.3607 35.048 23.3607 35.048 23.3607 35.0571C23.224 35.303 23.0783 35.5307 23.0055 35.5307C22.9508 35.5307 22.8506 34.875 23.0237 33.9824C23.388 32.0972 24.2532 29.1646 24.2441 29.0644C24.2441 29.0098 24.408 28.4997 23.6794 28.2356C22.969 27.9715 22.714 28.4087 22.6503 28.4087C22.5865 28.4087 22.541 28.5635 22.541 28.5635C22.541 28.5635 23.3333 25.2666 21.0291 25.2666C19.5902 25.2666 17.6047 26.8422 16.6211 28.2629C16.0018 28.5999 14.6812 29.3194 13.2696 30.0935C12.7322 30.3941 12.1767 30.6946 11.6576 30.977C11.6211 30.9405 11.5847 30.895 11.5483 30.8586C8.76138 27.8804 3.60655 25.7766 3.82513 21.7784C3.9071 20.3212 4.40801 16.4961 13.725 11.8513C21.3934 8.07169 27.4954 9.11905 28.5519 11.4415C30.0638 14.7566 25.2823 20.9132 17.3588 21.8058C14.3352 22.1427 12.7505 20.977 12.3497 20.5398C11.9308 20.0844 11.867 20.0571 11.7122 20.1482C11.4572 20.2848 11.6211 20.6946 11.7122 20.9314C11.949 21.5507 12.9235 22.6436 14.5719 23.181C16.0291 23.6546 19.5719 23.9187 23.8616 22.2611C28.6612 20.4032 32.4135 15.2393 31.3115 10.9132C30.2095 6.52342 22.9235 5.07533 16.0291 7.52524C11.9308 8.98244 7.48634 11.2775 4.28961 14.2648C0.4918 17.8167 -0.109292 20.9041 0.136609 22.1974C1.02003 26.7875 7.34972 29.7748 9.8816 31.9879C9.7541 32.0608 9.6357 32.1245 9.53552 32.1792C8.26958 32.8076 3.44262 35.3303 2.24043 37.9988C0.874314 41.0225 2.45901 43.1901 3.50637 43.4815C6.75774 44.3832 10.1002 42.762 11.8944 40.0844C13.6885 37.4068 13.4699 33.9278 12.6412 32.334C12.6321 32.3158 12.6229 32.2976 12.6047 32.2793C12.9326 32.0881 13.2696 31.8877 13.5974 31.6965C14.2441 31.3139 14.8816 30.9588 15.428 30.6673C15.1184 31.5143 14.8907 32.5252 14.7814 33.9824C14.6448 35.6946 15.3461 37.9169 16.2659 38.7912C16.6758 39.1737 17.1585 39.1828 17.4681 39.1828C18.5428 39.1828 19.0255 38.2903 19.5628 37.2338C20.2186 35.9405 20.8106 34.4378 20.8106 34.4378C20.8106 34.4378 20.0729 38.4997 22.0765 38.4997C22.8051 38.4997 23.5428 37.5526 23.8707 37.0699V37.079C23.8707 37.079 23.8889 37.0517 23.9253 36.9879C23.9982 36.8695 24.0437 36.7966 24.0437 36.7966V36.7784C24.3352 36.2684 24.9909 35.1118 25.9654 33.1901C27.2222 30.7129 28.4335 27.6163 28.4335 27.6163C28.4335 27.6163 28.5428 28.3722 28.9162 29.6291C29.1348 30.3668 29.5902 31.1773 29.9545 31.9606C29.663 32.3704 29.4809 32.5981 29.4809 32.5981C29.4809 32.5981 29.4809 32.5981 29.49 32.6072C29.2532 32.9169 28.9982 33.2538 28.7158 33.5817C27.7231 34.7657 26.5392 36.1227 26.3752 36.5143C26.184 36.9788 26.2295 37.3158 26.5938 37.589C26.8579 37.7894 27.3315 37.8167 27.8142 37.7894C28.7067 37.7256 29.3352 37.507 29.6448 37.3704C30.1275 37.1974 30.6922 36.9333 31.2204 36.5416C32.1949 35.8221 32.7869 34.793 32.7322 33.436C32.7049 32.6892 32.459 31.9424 32.1585 31.2411C32.2495 31.1136 32.3315 30.9861 32.4226 30.8586C33.9617 28.609 35.1548 26.1409 35.1548 26.1409C35.1548 26.1409 35.2641 26.8968 35.6375 28.1537C35.8197 28.7912 36.1931 29.4833 36.5209 30.1573C35.0729 31.3322 34.1803 32.6983 33.8616 33.5908C33.2878 35.2484 33.7341 35.9952 34.5811 36.1682C34.9636 36.2502 35.51 36.068 35.9107 35.895C36.4208 35.7311 37.0219 35.4487 37.5956 35.0298C38.5701 34.3103 39.5082 33.3085 39.4535 31.9515C39.4262 31.3322 39.2623 30.722 39.0346 30.13C40.2641 29.62 41.8488 29.3376 43.8707 29.5744C48.2058 30.0844 49.0619 32.7894 48.898 33.9278C48.7341 35.0662 47.8233 35.6855 47.5228 35.8768C47.2222 36.068 47.122 36.1318 47.1494 36.2684C47.1858 36.4688 47.3315 36.4597 47.5865 36.4232C47.9417 36.3595 49.8634 35.5034 49.9454 33.4087C50.082 30.7311 47.5319 27.8076 43.0237 27.8349ZM9.58105 39.1099C8.14207 40.6764 6.13843 41.2684 5.27322 40.7675C4.34426 40.2302 4.70856 37.9169 6.47541 36.2593C7.55009 35.2484 8.93442 34.3103 9.85428 33.7365C10.0637 33.609 10.3734 33.4269 10.7468 33.1992C10.8106 33.1628 10.847 33.1445 10.847 33.1445C10.9199 33.099 10.9927 33.0535 11.0656 33.0079C11.7122 35.3759 11.0929 37.4615 9.58105 39.1099ZM20.0546 31.9879C19.5537 33.2083 18.5064 36.3322 17.8688 36.1591C17.3224 36.0134 16.9854 33.6455 17.7596 31.3048C18.1512 30.13 18.98 28.7274 19.4627 28.181C20.2459 27.3067 21.1111 27.0152 21.3206 27.3704C21.5847 27.8349 20.3643 31.2229 20.0546 31.9879ZM28.6976 36.1227C28.4882 36.232 28.2878 36.3048 28.1967 36.2502C28.133 36.2138 28.2878 36.068 28.2878 36.068C28.2878 36.068 29.3716 34.9023 29.7996 34.3741C30.0455 34.0644 30.337 33.7001 30.6466 33.2903V33.4087C30.6466 34.8021 29.2987 35.7402 28.6976 36.1227ZM35.3643 34.6017C35.2095 34.4925 35.2368 34.1282 35.7559 32.9897C35.9563 32.5435 36.4299 31.7966 37.2404 31.0772C37.3315 31.3686 37.3953 31.6509 37.3862 31.915C37.377 33.6728 36.1202 34.3285 35.3643 34.6017Z" fill="#5E5CBD"/>
</svg>
