<svg width="150" height="150" viewBox="0 0 150 150" fill="none" xmlns="http://www.w3.org/2000/svg">
<path fill-rule="evenodd" clip-rule="evenodd" d="M75 0C33.5813 0 0 33.5813 0 75C0 116.419 33.5813 150 75 150C116.419 150 150 116.419 150 75C150 33.5813 116.419 0 75 0ZM75 12.5C109.462 12.5 137.5 40.5375 137.5 75C137.5 109.462 109.462 137.5 75 137.5C40.5375 137.5 12.5 109.462 12.5 75C12.5 40.5375 40.5375 12.5 75 12.5ZM91.825 105.556C92.8313 106.275 94.125 106.45 95.2812 106.012C96.4375 105.575 97.2938 104.587 97.5438 103.387C100.263 90.625 106.85 58.3187 109.319 46.7125C109.506 45.8375 109.2 44.9312 108.512 44.3437C107.825 43.7625 106.869 43.5938 106.019 43.9063C92.9187 48.7563 52.5625 63.8937 36.0687 70C35.0187 70.3875 34.3375 71.3938 34.375 72.5C34.4125 73.6063 35.1562 74.5625 36.225 74.8812C43.625 77.0937 53.3375 80.175 53.3375 80.175C53.3375 80.175 57.8687 93.8812 60.2375 100.85C60.5312 101.719 61.2188 102.413 62.1188 102.644C63.025 102.881 63.9813 102.637 64.6563 102C68.4563 98.4125 74.3312 92.8688 74.3312 92.8688C74.3312 92.8688 85.4938 101.05 91.825 105.556V105.556ZM57.4188 78.4437L62.6688 95.75L63.8313 84.7875C63.8313 84.7875 84.1 66.5062 95.6563 56.0812C96 55.7812 96.0437 55.2687 95.7625 54.9062C95.4812 54.55 94.975 54.4625 94.5875 54.7063C81.1937 63.2563 57.4188 78.4437 57.4188 78.4437V78.4437Z" fill="#8382CB"/>
</svg>
