<svg width="150" height="150" viewBox="0 0 150 150" fill="none" xmlns="http://www.w3.org/2000/svg">
<path d="M75 0C33.5875 0 0 33.5813 0 75C0 108.138 21.4875 136.25 51.2937 146.169C55.0375 146.862 56.25 144.537 56.25 142.562V128.6C35.3875 133.138 31.0438 119.75 31.0438 119.75C27.6313 111.081 22.7125 108.775 22.7125 108.775C15.9063 104.119 23.2313 104.219 23.2313 104.219C30.7625 104.744 34.725 111.95 34.725 111.95C41.4125 123.413 52.2688 120.1 56.55 118.181C57.2188 113.338 59.1625 110.025 61.3125 108.156C44.6563 106.25 27.1437 99.8187 27.1437 71.0875C27.1437 62.8937 30.075 56.2062 34.8687 50.9562C34.0937 49.0625 31.525 41.4313 35.6 31.1063C35.6 31.1063 41.9 29.0937 56.2312 38.7937C62.2125 37.1312 68.625 36.3 75 36.2687C81.375 36.3 87.7937 37.1312 93.7875 38.7937C108.106 29.0937 114.394 31.1063 114.394 31.1063C118.475 41.4375 115.906 49.0687 115.131 50.9562C119.944 56.2062 122.85 62.9 122.85 71.0875C122.85 99.8937 105.306 106.238 88.6063 108.094C91.2938 110.419 93.75 114.981 93.75 121.981V142.562C93.75 144.556 94.95 146.9 98.7562 146.162C128.537 136.231 150 108.125 150 75C150 33.5813 116.419 0 75 0Z" fill="#8382CB"/>
</svg>
