<svg width="50" height="50" viewBox="0 0 50 50" fill="none" xmlns="http://www.w3.org/2000/svg">
<path d="M32.8491 2.16064C32.9221 4.854 33.1545 7.1832 32.6785 9.08369H30.6727C29.4641 11.3177 29.5804 13.045 30.442 14.4873L32.0047 13.6703C32.2847 12.7467 29.2086 11.4502 33.3901 10.9601C33.9561 11.2382 35.4286 11.879 37.2075 12.6424C37.5803 9.27256 39.7552 9.04912 41.8433 8.16357L40.4426 5.26641C36.9859 6.63398 35.0191 3.70215 32.8491 2.16064ZM33.3256 14.6479C32.1778 14.7728 31.541 15.4085 30.9962 16.1362C30.4207 18.2714 30.9854 20.4063 31.1256 22.5415L27.5023 28.5588C25.3734 30.2321 25.4602 28.4742 25.1912 27.4157C23.388 29.2233 23.6369 31.4128 22.8438 33.3467L16.1797 33.929L10.8096 38.3934L14.0122 39.6873L14.6269 38.3286L19.35 36.3877L21.2265 36.4522L21.4204 38.5228L22.8438 40.2051L26.0789 37.2935L25.2378 35.5465C26.853 34.6486 26.8061 35.902 27.5024 36.1936L29.1624 35.5287L29.9431 34.1046L30.5991 35.3384L31.9175 33.0415L33.2202 34.312L34.7489 31.7938L36.0311 19.7234L33.3256 14.6479ZM18.6384 37.3905L17.5385 38.5876L16.115 38.4582L14.6106 40.4316L16.0503 42.4695L19.2853 40.658L20.8381 38.6521C20.3542 37.8631 19.7192 37.2756 18.6384 37.3904V37.3905ZM11.0683 39.364C10.075 39.7839 9.06747 40.0596 8.15683 41.3051L10.5508 43.3107C9.59872 44.5725 9.87822 45.834 9.80663 47.0957L11.4565 47.8398L12.9447 46.7399C12.7118 44.9578 13.2482 43.3038 14.0446 41.6931L13.3976 40.3991L11.0683 39.364Z" fill="#5E5CBD"/>
</svg>
