<svg width="64" height="50" viewBox="0 0 64 50" fill="none" xmlns="http://www.w3.org/2000/svg">
<g clip-path="url(#clip0_44_200)">
<path d="M36.5292 48.5621L37.1309 49.4095L38.7147 48.9362L39.375 47.2416L37.3706 47.2881L36.5292 48.5621ZM63.2353 7.49768L61.5231 8.70724L60.0446 8.9119L58.5135 6.69131L56.6378 6.38151L54.3235 1.47857L52.1613 0.590332L50.1159 1.0869L49.6017 2.98028L48.2635 5.3646L46.8201 7.04768L45.7623 6.60357L44.6461 9.15724L44.9851 9.76509L47.6498 9.32685L48.8419 10.4781L45.7681 11.7987L44.8039 13.0668L42.7704 14.0778L41.1164 13.5751L41.0287 15.4335L38.44 17.2744L35.6 17.3972L32.3799 17.9639L30.2821 16.7484L25.7123 15.942H24.8532L24.0934 13.6219L22.3228 12.4474L19.6929 11.7462L20.1547 9.79425L19.6929 8.10553L16.6601 5.44646L15.4096 6.28224L14.7784 8.19891L12.511 7.53862L11.1902 9.76509L8.81766 10.0281L8.98702 12.8215L8.04633 14.2121L2.09143 14.9894L0.490204 16.0996L1.75246 21.1254L3.67501 22.5045L4.51079 24.1935L3.90295 28.1732L5.58604 29.9847L6.32231 29.9205L9.74094 33.3916L14.1414 35.0864L15.6431 34.3207L17.5424 35.4369L19.4007 34.4318L22.6032 33.8943L23.4039 35.355L24.7069 35.7349L25.2564 37.792L23.5792 40.0886L24.6427 41.0119L25.1686 43.6359L28.1723 45.2195L28.2309 43.5131L30.9074 43.5364L32.9468 42.8879L34.3902 43.5072L35.0564 45.0266L37.9726 45.1553L39.1294 45.4766L42.1684 44.7112L44.0909 43.6065L45.3473 43.6884L46.9544 42.5313L49.0816 40.7315L49.6017 39.3465L50.6537 37.7335L52.0326 36.1849L52.3074 34.1278L51.4483 33.1112L51.4716 32.0533L49.2691 27.459L51.8995 24.9688L51.1091 24.42L47.8003 24.5538L46.9544 22.6097L47.4336 21.78L49.362 20.658L50.712 19.3021L53.9086 20.6403L55.4922 19.1092L56.6728 17.7009L58.1336 17.8822L60.927 14.9369L60.5005 12.9148L62.7912 11.6818L63.2353 7.49768Z" fill="#5E5CBD"/>
</g>
<defs>
<clipPath id="clip0_44_200">
<rect width="63.7255" height="50" fill="white"/>
</clipPath>
</defs>
</svg>
