<svg width="100" height="100" viewBox="0 0 100 100" fill="none" xmlns="http://www.w3.org/2000/svg">
<g clip-path="url(#clip0_123_2)">
<path d="M50 8.41671C72.975 8.41671 91.6667 27.1084 91.6667 50.0834C91.6667 73.0584 72.975 91.75 50 91.75C27.025 91.75 8.33333 73.0584 8.33333 50.0834C8.33333 27.1084 27.025 8.41671 50 8.41671V8.41671ZM50 0.083374C22.3875 0.083374 0 22.4709 0 50.0834C0 77.6959 22.3875 100.083 50 100.083C77.6125 100.083 100 77.6959 100 50.0834C100 22.4709 77.6125 0.083374 50 0.083374V0.083374ZM50 52.375L25.0333 33.3334H74.9625L50 52.375ZM50 57.7417L25 38.4542V66.6667H75V38.4542L50 57.7417V57.7417Z" fill="white"/>
</g>
<defs>
<clipPath id="clip0_123_2">
<rect width="100" height="100" fill="white"/>
</clipPath>
</defs>
</svg>
