<svg width="50" height="50" viewBox="0 0 50 50" fill="none" xmlns="http://www.w3.org/2000/svg">
<path d="M47.6479 0.34375C47.45 0.125 47.1688 0 46.875 0H3.125C2.8292 0 2.55 0.125 2.35205 0.34375C2.1541 0.560449 2.0583 0.852051 2.0875 1.1458L6.2542 42.8125C6.29375 43.2188 6.5709 43.5667 6.96045 43.6958L25.7104 49.9458C25.8167 49.9833 25.9292 50 26.0396 50C26.1646 50 26.2876 49.9771 26.4084 49.9333L43.0751 43.6833C43.4459 43.5458 43.7063 43.2062 43.7459 42.8125L47.9126 1.1458C47.9417 0.854199 47.8458 0.560449 47.6479 0.34375ZM41.7333 41.9604L26.0187 47.8542L8.2583 41.9333L4.27295 2.0833H45.7209L41.7333 41.9604Z" fill="#5E5CBD"/>
<path d="M39.3604 10.8165C39.1625 10.5645 38.8604 10.4165 38.5396 10.4165H28.123C27.548 10.4165 27.0813 10.8832 27.0813 11.4582V23.9582C27.0813 24.5332 27.548 24.9999 28.123 24.9999H35.2084L33.4584 34.6229L27.7939 36.5124C27.248 36.6937 26.9543 37.2832 27.1355 37.8291C27.2814 38.2666 27.6876 38.5416 28.123 38.5416C28.2314 38.5416 28.3418 38.5249 28.4543 38.4896L34.7043 36.4063C35.0647 36.2855 35.3314 35.9792 35.398 35.6042L37.4813 24.1459C37.5376 23.8417 37.4543 23.5292 37.2563 23.2917C37.0584 23.0542 36.7646 22.9167 36.4563 22.9167H29.1646V12.4998H37.2042L36.4875 15.3728C36.3479 15.9311 36.6875 16.4957 37.2458 16.6353C37.7979 16.7728 38.3688 16.4353 38.5083 15.877L39.55 11.7103C39.6271 11.3978 39.5583 11.0686 39.3604 10.8165Z" fill="#5E5CBD"/>
<path d="M23.9542 10.4165H11.4542C10.8792 10.4165 10.4125 10.8832 10.4125 11.4582C10.4125 12.0332 10.8792 12.4998 11.4542 12.4998H22.9125V36.1186L17.5604 34.5894L16.6437 30.0039C16.5312 29.4414 15.9917 29.0727 15.4187 29.1872C14.8562 29.2997 14.4895 29.8477 14.602 30.4122L15.6437 35.6205C15.7208 36.0038 16.0042 36.3101 16.3792 36.4185L23.6709 38.5018C23.7646 38.5288 23.8604 38.5413 23.9563 38.5413C24.1793 38.5413 24.4001 38.4684 24.5813 38.3309C24.8418 38.1351 24.9959 37.8267 24.9959 37.4996V11.4581C24.9958 10.8831 24.5292 10.4165 23.9542 10.4165Z" fill="#5E5CBD"/>
</svg>
