<svg width="50" height="50" viewBox="0 0 50 50" fill="none" xmlns="http://www.w3.org/2000/svg">
<g clip-path="url(#clip0_43_87)">
<path d="M48.2266 5.38726L37.9406 0.43882C36.7437 -0.139305 35.3203 0.104445 34.3844 1.04038L14.6828 19.0169L6.09687 12.506C5.3 11.8951 4.17656 11.9451 3.43594 12.6201L0.685938 15.1263C-0.225 15.9482 -0.225 17.381 0.678125 18.2029L8.125 24.9982L0.678125 31.7935C-0.225 32.6154 -0.225 34.0482 0.685938 34.8701L3.43594 37.3763C4.18437 38.0513 5.3 38.1013 6.09687 37.4904L14.6828 30.9716L34.3937 48.956C35.3219 49.892 36.7453 50.1357 37.9422 49.5576L48.2375 44.6013C49.3203 44.081 50.0031 42.9904 50.0031 41.7857V8.19976C50.0031 7.00288 49.3109 5.90445 48.2297 5.38413L48.2266 5.38726ZM37.5078 36.3529L22.55 24.9998L37.5078 13.6466V36.3529Z" fill="#5E5CBD"/>
</g>
<defs>
<clipPath id="clip0_43_87">
<rect width="50" height="50" fill="white"/>
</clipPath>
</defs>
</svg>
