<svg width="50" height="50" viewBox="0 0 50 50" fill="none" xmlns="http://www.w3.org/2000/svg">
<path d="M25 0C38.8071 0 50 11.1929 50 25C50 38.8071 38.8071 50 25 50C11.1929 50 0 38.8071 0 25C0 11.1929 11.1929 0 25 0ZM25 3.48837C13.1195 3.48837 3.48837 13.1195 3.48837 25C3.48837 36.8805 13.1195 46.5116 25 46.5116C36.8805 46.5116 46.5116 36.8805 46.5116 25C46.5116 13.1195 36.8805 3.48837 25 3.48837ZM30.121 8.72093C31.736 9.33291 33.2338 10.1822 34.5758 11.2422C34.5938 11.2489 34.6098 11.259 34.6262 11.279C34.938 11.5198 35.2387 11.7739 35.5326 12.0481C35.5863 12.0949 35.6352 12.1451 35.6872 12.1953C36.5075 12.9542 37.2516 13.807 37.9145 14.7232C38.0054 14.8503 38.103 14.9672 38.1874 15.091C38.3483 15.3251 38.4976 15.5693 38.6473 15.8132C38.7658 16.0072 38.8845 16.2045 38.9949 16.4051C39.1215 16.6291 39.2435 16.8533 39.3604 17.0873C39.4921 17.3414 39.6123 17.6123 39.7324 17.8765C39.8153 18.0603 39.9063 18.2476 39.9826 18.4416C40.1646 18.8964 40.3286 19.3545 40.4749 19.8227C40.5221 19.9764 40.5595 20.1437 40.6049 20.2974C40.7041 20.6486 40.7951 21.0097 40.8698 21.3609C40.9104 21.5447 40.9445 21.7286 40.9785 21.9124C41.0434 22.2838 41.0971 22.6415 41.1427 23.016C41.1604 23.1799 41.185 23.3538 41.198 23.5175C41.2483 24.0559 41.2791 24.5977 41.2791 25.1427C41.2791 25.6777 41.2484 26.2128 41.2011 26.7412C41.185 26.9049 41.1654 27.0822 41.1444 27.2427C41.1037 27.6039 41.0501 27.965 40.9868 28.3161C40.9525 28.5 40.9234 28.6839 40.8861 28.8612C40.7868 29.3361 40.6715 29.8008 40.5366 30.2622C39.2662 29.6771 37.7698 28.8211 37.3799 27.8779C36.67 26.1761 34.7804 25.3266 34.0105 23.1364C32.7415 19.5117 34.4248 19.6087 34.6618 17.3582C34.7708 16.3016 34.0105 16.0841 33.0064 16.5122C30.6686 17.4953 29.8757 17.1174 29.4029 15.3552C28.93 13.5963 29.4029 13.1081 29.4029 13.1081C27.8076 13.282 27.7473 11.3392 28.5744 10.851C29.151 10.5199 29.6385 9.50677 30.121 8.72093ZM23.4355 19.4915C24.9107 18.8195 26.2722 18.5753 26.0935 17.415C25.9163 16.2679 25.502 15.412 23.1982 15.412C20.893 15.412 21.8985 18.5753 20.0075 16.6894C18.1179 14.8134 20.4201 15.2983 21.3656 14.8703C22.3113 14.4389 23.2568 12.6767 21.6028 12.5529C19.9489 12.4359 20.3031 13.2819 19.0034 12.8003C17.7037 12.3122 17.1124 14.499 16.2837 14.1948C15.7378 13.9908 14.274 12.8639 13.3042 11.7571C11.3497 13.4491 9.7737 15.5991 8.72093 18.0303C9.00214 21.3005 10.7308 23.0159 10.7308 23.0159C10.7308 23.0159 11.6177 25.1426 16.9368 27.7577C16.9368 27.7577 17.9393 27.8177 16.7582 26.604C15.5771 25.3868 14.2757 23.8686 15.7524 23.0795C17.2294 22.2837 17.6453 22.3506 17.9993 23.8117C18.3536 25.2731 19.5363 24.4139 19.6533 23.016C19.7719 21.6216 21.9571 20.1636 23.4355 19.4915ZM22.3113 26.8449C24.8538 26.8449 24.6166 27.634 26.6264 29.4061C28.636 31.1651 27.5719 32.9273 26.5661 34.2683C25.5622 35.6025 24.6751 37.1173 24.2022 39.8625C23.7296 42.5978 22.4882 40.6484 22.0757 39.9796C21.6631 39.3074 21.0115 38.7022 21.1918 35.9033C21.3656 33.1112 19.4745 34.7564 18.8264 31.1049C18.1765 27.4601 19.7719 26.8449 22.3113 26.8449ZM34.7513 29.2524C35.4303 28.821 37.0533 29.948 36.7009 31.135C36.3451 32.322 35.2239 31.6532 34.6618 31.135C34.0998 30.6201 34.0705 29.6771 34.7513 29.2524Z" fill="#5E5CBD"/>
</svg>
