<svg width="150" height="150" viewBox="0 0 150 150" fill="none" xmlns="http://www.w3.org/2000/svg">
<g clip-path="url(#clip0_123_2)">
<path d="M75 12.625C109.462 12.625 137.5 40.6625 137.5 75.125C137.5 109.587 109.462 137.625 75 137.625C40.5375 137.625 12.5 109.587 12.5 75.125C12.5 40.6625 40.5375 12.625 75 12.625V12.625ZM75 0.125C33.5813 0.125 0 33.7063 0 75.125C0 116.544 33.5813 150.125 75 150.125C116.419 150.125 150 116.544 150 75.125C150 33.7063 116.419 0.125 75 0.125V0.125ZM75 78.5625L37.55 50H112.444L75 78.5625ZM75 86.6125L37.5 57.6812V100H112.5V57.6812L75 86.6125V86.6125Z" fill="#5E5CBD"/>
</g>
<defs>
<clipPath id="clip0_123_2">
<rect width="150" height="150" fill="white"/>
</clipPath>
</defs>
</svg>
