<svg width="79" height="50" viewBox="0 0 79 50" fill="none" xmlns="http://www.w3.org/2000/svg">
<path d="M73.2527 33.9054L71.053 30.8765L68.4241 30.1949L67.3874 32.128L65.8765 32.0467L65.4322 25.7735L67.2687 21.8563L68.7871 21.0783L67.2985 16.9687L68.35 14.4506L69.5202 15.1542L71.875 19.8347L73.1711 20.7678L77.7109 21.8856L74.0747 15.6726L71.8901 15.8946L70.3792 14.5615L70.3865 11.1329L68.6313 6.72623L66.3874 5.37081L65.4988 3.70454L66.7428 1.97894L64.5804 0.631348L64.1804 2.75665L61.322 5.76328L60.3518 8.69611L60.7295 10.222L58.1078 12.947L57.3822 14.9392L55.7232 15.0798L53.6274 16.9317L53.9606 18.457L52.0353 21.0862L50.6428 19.5753L49.0506 20.8937L45.2145 21.7009L45.1527 21.8187L44.7036 18.953L43.2669 19.057L38.7343 21.0413L37.7494 22.856L35.8612 23.0112L34.8762 24.1597L33.069 24.3371L31.9139 22.9223L29.1217 25.8106L23.9898 23.11L16.9837 21.5301L15.8063 22.1154L17.1837 19.2124L17.1747 19.1801L18.028 21.2711L20.2425 21.2193L19.6572 16.5169L17.9615 16.3835L13.7994 19.5157L13.444 20.6714L10.2003 21.4045L8.7488 20.9006L6.16416 22.6633L6.57139 24.3816L4.18675 29.5729L5.28284 33.3205L2.39459 34.2163L0.602417 34.4091L0.861453 37.697L3.13525 41.6666L3.66838 43.9106L5.45302 40.6889L6.39368 40.4298L7.97862 40.8L8.04519 37.6154L9.70392 36.7491L13.8711 37.5229L17.7819 41.6015L20.1015 39.6151L26.1078 40.7557L27.4112 43.2289L29.0997 42.9551L31.3584 46.991L34.3578 47.5687L36.7425 49.3687L40.0527 47.7244L44.2961 48.3835L45.1404 45.747L47.6066 46.132L48.9545 47.0949L51.9684 46.4286L54.4051 46.4801L56.4563 44.3545L59.1669 43.9106L59.663 42.6292L59.8334 38.8298L62.2404 37.7783L65.247 39.6446L67.7205 38.8967L68.7648 39.6151L70.231 37.2823L71.2606 38.7856L72.2455 42.6735L73.5042 42.1847L74.1783 40.378L73.2527 33.9054Z" fill="#5E5CBD"/>
</svg>
