<svg width="50" height="50" viewBox="0 0 50 50" fill="none" xmlns="http://www.w3.org/2000/svg">
<path d="M49.8457 27.9045C50.525 26.889 48.7451 25.192 48.1096 25.1161C45.9498 24.8559 45.2222 23.0069 44.0364 21.881C42.192 20.1333 40.2302 18.3028 40.7483 15.0401C41.1973 12.2171 39.9171 9.79255 36.6475 9.49552C34.7456 9.33204 33.2236 9.72808 31.0983 8.42713C26.9491 5.8782 21.8397 8.01728 18.7152 10.633C16.583 12.4175 14.3679 15.344 12.8667 18.1071C11.971 19.758 11.0753 20.7734 9.5579 21.7774C6.95601 23.5043 4.12386 23.6332 1.26179 23.647C0.932522 25.4545 1.84894 26.7578 2.33248 28.1785C2.77917 29.4932 3.87749 31.2846 2.81141 32.1481C0.672334 33.8819 -1.46214 34.423 1.34238 38.0035C3.19133 40.3544 2.39234 41.303 5.46165 39.0903C6.09716 38.6367 6.68661 38.5261 7.38889 38.4571C15.8001 37.6212 23.6219 41.0935 31.8236 41.8257C33.9742 42.0168 36.4264 40.4281 38.2938 42.7214C38.5264 42.5004 38.9753 42.2586 38.9592 42.0698C38.3767 37.4071 41.6647 37.087 45.4847 36.8292C43.8084 35.3187 44.7271 33.4789 43.9535 32.0537C42.7815 29.9008 41.8789 28.2452 45.6758 29.8064C47.4672 30.5409 49.0329 29.1041 49.8457 27.9045Z" fill="#5E5CBD"/>
</svg>
