<svg width="150" height="150" viewBox="0 0 150 150" fill="none" xmlns="http://www.w3.org/2000/svg">
<path fill-rule="evenodd" clip-rule="evenodd" d="M75 0C33.5812 0 0 33.5812 0 75C0 116.419 33.5812 150 75 150C116.419 150 150 116.419 150 75C150 33.5812 116.419 0 75 0ZM75 12.5C109.463 12.5 137.5 40.5375 137.5 75C137.5 109.463 109.463 137.5 75 137.5C40.5375 137.5 12.5 109.463 12.5 75C12.5 40.5375 40.5375 12.5 75 12.5ZM92.4 109.9H49.875C45.6375 109.9 42.1875 106.45 42.1875 102.175V51.475C42.1875 47.2 45.6375 43.75 49.875 43.75H100.125C104.363 43.75 107.812 47.2 107.812 51.475V118.75L99.75 111.625L95.2125 107.425L90.4125 102.963L92.4 109.9ZM85.65 92.725C93.9375 92.4625 97.125 87.025 97.125 87.025C97.125 74.95 91.725 65.1625 91.725 65.1625C86.325 61.1125 81.1875 61.225 81.1875 61.225L80.6625 61.825C87.0375 63.775 90 66.5875 90 66.5875C86.1 64.45 82.275 63.4 78.7125 62.9875C76.0125 62.6875 73.425 62.7625 71.1375 63.0625L70.5 63.1375C69.1875 63.25 66 63.7375 61.9875 65.5L59.775 66.5875C59.775 66.5875 62.8875 63.625 69.6375 61.675L69.2625 61.225C69.2625 61.225 64.125 61.1125 58.725 65.1625C58.725 65.1625 53.325 74.95 53.325 87.025C53.325 87.025 56.475 92.4625 64.7625 92.725L67.275 89.6125C62.5125 88.1875 60.7125 85.1875 60.7125 85.1875L61.7625 85.825L61.9125 85.9375L62.0625 86.0187L62.1 86.0438L62.25 86.125C63.1875 86.65 64.125 87.0625 64.9875 87.4C66.525 88 68.3625 88.6 70.5 89.0125C73.3125 89.5375 76.6125 89.725 80.2125 89.05C81.975 88.75 83.775 88.225 85.65 87.4375C86.9625 86.95 88.425 86.2375 89.9625 85.225C89.9625 85.225 88.0875 88.3 83.175 89.6875L85.65 92.725ZM68.2125 75.2125C66.075 75.2125 64.3875 77.0875 64.3875 79.375C64.3875 81.6625 66.1125 83.5375 68.2125 83.5375C70.35 83.5375 72.0375 81.6625 72.0375 79.375C72.075 77.0875 70.35 75.2125 68.2125 75.2125ZM81.9 75.2125C79.7625 75.2125 78.075 77.0875 78.075 79.375C78.075 81.6625 79.8 83.5375 81.9 83.5375C84.0375 83.5375 85.725 81.6625 85.725 79.375C85.725 77.0875 84.0375 75.2125 81.9 75.2125Z" fill="#5E5CBD"/>
</svg>
