<svg width="50" height="50" viewBox="0 0 50 50" fill="none" xmlns="http://www.w3.org/2000/svg">
<path fill-rule="evenodd" clip-rule="evenodd" d="M17.5311 0C12.4341 0 8.33334 4.2766 8.33334 9.51577C8.33334 12.7016 9.84927 15.5306 12.1816 17.2579C9.84927 18.9852 8.33334 21.8142 8.33334 25C8.33334 28.1858 9.84927 31.0148 12.1816 32.7421C9.84927 34.4694 8.33334 37.2983 8.33334 40.4842C8.33334 45.7233 12.4341 50 17.5311 50C22.6279 50 26.7288 45.7233 26.7288 40.4842V32.4356C28.2992 33.7358 30.2973 34.5158 32.4694 34.5158C37.5663 34.5158 41.6671 30.2392 41.6671 25C41.6671 21.8142 40.1513 18.9852 37.819 17.2579C40.1513 15.5306 41.6671 12.7016 41.6671 9.51577C41.6671 4.2766 37.5663 0 32.4694 0H17.5311ZM11.7905 9.51577C11.7905 6.20144 14.3761 3.54729 17.5311 3.54729H23.2717V15.4842H17.5311C14.3761 15.4842 11.7905 12.8301 11.7905 9.51577ZM32.4694 15.4842H26.7288V3.54729H32.4694C35.6244 3.54729 38.21 6.20144 38.21 9.51577C38.21 12.8301 35.6244 15.4842 32.4694 15.4842ZM11.7905 25C11.7905 21.6856 14.3761 19.0315 17.5311 19.0315H23.2717V30.9685H17.5311C14.3761 30.9685 11.7905 28.3144 11.7905 25ZM26.7288 25C26.7288 21.6856 29.3144 19.0315 32.4694 19.0315C35.6244 19.0315 38.21 21.6856 38.21 25C38.21 28.3144 35.6244 30.9685 32.4694 30.9685C29.3144 30.9685 26.7288 28.3144 26.7288 25ZM11.7905 40.4842C11.7905 37.17 14.3761 34.5158 17.5311 34.5158H23.2717V40.4842C23.2717 43.7985 20.686 46.4527 17.5311 46.4527C14.3761 46.4527 11.7905 43.7985 11.7905 40.4842Z" fill="#5E5CBD"/>
</svg>
