<svg width="100" height="100" viewBox="0 0 100 100" fill="none" xmlns="http://www.w3.org/2000/svg">
<path fill-rule="evenodd" clip-rule="evenodd" d="M50 0C22.3875 0 0 22.3875 0 50C0 77.6125 22.3875 100 50 100C77.6125 100 100 77.6125 100 50C100 22.3875 77.6125 0 50 0ZM50 8.33333C72.975 8.33333 91.6667 27.025 91.6667 50C91.6667 72.975 72.975 91.6667 50 91.6667C27.025 91.6667 8.33333 72.975 8.33333 50C8.33333 27.025 27.025 8.33333 50 8.33333ZM61.6 73.2667H33.25C30.425 73.2667 28.125 70.9667 28.125 68.1167V34.3167C28.125 31.4667 30.425 29.1667 33.25 29.1667H66.75C69.575 29.1667 71.875 31.4667 71.875 34.3167V79.1667L66.5 74.4167L63.475 71.6167L60.275 68.6417L61.6 73.2667ZM57.1 61.8167C62.625 61.6417 64.75 58.0167 64.75 58.0167C64.75 49.9667 61.15 43.4417 61.15 43.4417C57.55 40.7417 54.125 40.8167 54.125 40.8167L53.775 41.2167C58.025 42.5167 60 44.3917 60 44.3917C57.4 42.9667 54.85 42.2667 52.475 41.9917C50.675 41.7917 48.95 41.8417 47.425 42.0417L47 42.0917C46.125 42.1667 44 42.4917 41.325 43.6667L39.85 44.3917C39.85 44.3917 41.925 42.4167 46.425 41.1167L46.175 40.8167C46.175 40.8167 42.75 40.7417 39.15 43.4417C39.15 43.4417 35.55 49.9667 35.55 58.0167C35.55 58.0167 37.65 61.6417 43.175 61.8167L44.85 59.7417C41.675 58.7917 40.475 56.7917 40.475 56.7917L41.175 57.2167L41.275 57.2917L41.375 57.3458L41.4 57.3625L41.5 57.4167C42.125 57.7667 42.75 58.0417 43.325 58.2667C44.35 58.6667 45.575 59.0667 47 59.3417C48.875 59.6917 51.075 59.8167 53.475 59.3667C54.65 59.1667 55.85 58.8167 57.1 58.2917C57.975 57.9667 58.95 57.4917 59.975 56.8167C59.975 56.8167 58.725 58.8667 55.45 59.7917L57.1 61.8167ZM45.475 50.1417C44.05 50.1417 42.925 51.3917 42.925 52.9167C42.925 54.4417 44.075 55.6917 45.475 55.6917C46.9 55.6917 48.025 54.4417 48.025 52.9167C48.05 51.3917 46.9 50.1417 45.475 50.1417ZM54.6 50.1417C53.175 50.1417 52.05 51.3917 52.05 52.9167C52.05 54.4417 53.2 55.6917 54.6 55.6917C56.025 55.6917 57.15 54.4417 57.15 52.9167C57.15 51.3917 56.025 50.1417 54.6 50.1417Z" fill="#E5E5E5"/>
</svg>
